<svg xmlns="http://www.w3.org/2000/svg" version="1.1" xmlns:xlink="http://www.w3.org/1999/xlink" xmlns:svgjs="http://svgjs.dev/svgjs" width="1500" height="890" viewBox="0 0 1500 890"><g transform="matrix(1,0,0,1,-0.9090909090909918,-0.5337657667618032)"><svg viewBox="0 0 396 235" data-background-color="#000000" preserveAspectRatio="xMidYMid meet" height="890" width="1500" xmlns="http://www.w3.org/2000/svg" xmlns:xlink="http://www.w3.org/1999/xlink"><g id="tight-bounds" transform="matrix(1,0,0,1,0.2400000000000091,0.14093815189778525)"><svg viewBox="0 0 395.52 234.71812369620443" height="234.71812369620443" width="395.52"><g><svg viewBox="0 0 397.4975999999999 235.89171431468543" height="234.71812369620443" width="395.52"><g><rect width="397.4975999999999" height="5.3026446815999995" x="0" y="131.55812323733167" fill="#89939e" opacity="1" stroke-width="0" stroke="transparent" fill-opacity="1" class="rect-qz-0" data-fill-palette-color="primary" rx="1%" id="qz-0" data-palette-color="#89939e"></rect></g><g transform="matrix(1,0,0,1,0.9887999999999693,150.74203671893164)"><svg viewBox="0 0 395.52 85.14967759575376" height="85.14967759575376" width="395.52"><g id="textblocktransform"><svg viewBox="0 0 395.52 85.14967759575376" height="85.14967759575376" width="395.52" id="textblock"><g><svg viewBox="0 0 395.52 58.8" height="58.8" width="395.52"><g transform="matrix(1,0,0,1,0,0)"><svg width="395.52" viewBox="4.6 -36.15 247.18 36.75" height="58.8" data-palette-color="#89939e"><g class="wordmark-text-0" data-fill-palette-color="primary" id="text-0"><path d="M4.6 0L4.6-34.3 9.35-34.3 9.35 0 4.6 0ZM26.05 0.6Q21.05 0.6 18.35-2.75 15.65-6.1 15.65-13.15L15.65-13.15Q15.65-20.05 18.32-23.48 21-26.9 25.65-26.9L25.65-26.9Q28.45-26.9 30.4-26.05 32.35-25.2 33.65-23.3L33.65-23.3 33.95-23.3 33.95-36.15 38.35-36.15 38.35 0 35.05 0 34.5-3.55 34.2-3.55Q32.9-1.5 30.77-0.45 28.65 0.6 26.05 0.6L26.05 0.6ZM27.15-3.05Q30.7-3.05 32.32-5.55 33.95-8.05 33.95-12.95L33.95-12.95 33.95-13.15Q33.95-18.15 32.3-20.7 30.65-23.25 27.15-23.25L27.15-23.25Q24.65-23.25 23.12-22.28 21.6-21.3 20.9-19.1 20.2-16.9 20.2-13.15L20.2-13.15 20.2-12.95Q20.2-9.25 20.9-7.1 21.6-4.95 23.1-4 24.6-3.05 27.15-3.05L27.15-3.05ZM56.2 0.6Q49.85 0.6 46.75-2.75 43.65-6.1 43.65-13.15L43.65-13.15Q43.65-20.2 46.75-23.55 49.85-26.9 56.2-26.9L56.2-26.9Q61.9-26.9 64.72-23.88 67.55-20.85 67.55-14.15L67.55-14.15 67.55-11.95 48.2-11.95Q48.45-7.4 50.37-5.23 52.3-3.05 56.2-3.05L56.2-3.05Q59.35-3.05 61.3-4.5 63.25-5.95 63.25-8.95L63.25-8.95 67.55-8.95Q67.55-4.35 64.37-1.88 61.2 0.6 56.2 0.6L56.2 0.6ZM48.3-15.6L62.95-15.6Q62.95-23.25 56.2-23.25L56.2-23.25Q52.45-23.25 50.57-21.45 48.7-19.65 48.3-15.6L48.3-15.6ZM79.99 0.6Q76.59 0.6 73.94-1 71.29-2.6 71.29-6.8L71.29-6.8Q71.29-11.85 75.79-13.73 80.29-15.6 88.79-15.6L88.79-15.6 88.79-18.5Q88.79-20.8 87.49-22.03 86.19-23.25 82.79-23.25L82.79-23.25Q79.59-23.25 78.22-22.05 76.84-20.85 76.84-19.1L76.84-19.1 76.84-18.5 72.59-18.5Q72.54-18.8 72.54-19.6L72.54-19.6Q72.54-23.1 75.44-25 78.34-26.9 83.19-26.9L83.19-26.9Q88.09-26.9 90.64-24.85 93.19-22.8 93.19-19.05L93.19-19.05 93.19-4.8Q93.19-3.9 93.69-3.48 94.19-3.05 94.94-3.05L94.94-3.05 96.94-3.05 96.94-0.2Q95.64 0.4 93.54 0.4L93.54 0.4Q91.84 0.4 90.69-0.63 89.54-1.65 89.14-3.35L89.14-3.35 88.79-3.35Q87.44-1.5 85.12-0.45 82.79 0.6 79.99 0.6L79.99 0.6ZM81.14-3.05Q83.09-3.05 84.84-3.85 86.59-4.65 87.69-6.23 88.79-7.8 88.79-10.05L88.79-10.05 88.79-11.95Q82.34-11.95 79.12-10.93 75.89-9.9 75.89-7.05L75.89-7.05Q75.89-4.9 77.22-3.98 78.54-3.05 81.14-3.05L81.14-3.05ZM99.24 0L99.24-1.45Q99.24-4.15 100.64-6.43 102.04-8.7 104.02-10.43 105.99-12.15 109.29-14.55L109.29-14.55Q111.94-16.5 113.59-17.88 115.24-19.25 116.34-20.7L116.34-20.7Q118.04-22.95 118.04-25.3L118.04-25.3Q118.04-27.65 116.57-29.38 115.09-31.1 111.44-31.1L111.44-31.1Q107.69-31.1 105.94-29.28 104.19-27.45 104.19-24.55L104.19-24.55 104.19-22.5 99.79-22.5Q99.64-23.35 99.64-24.5L99.64-24.5Q99.64-29.7 103.04-32.3 106.44-34.9 111.69-34.9L111.69-34.9Q116.59-34.9 119.59-32.43 122.59-29.95 122.59-24.9L122.59-24.9Q122.59-22.2 121.09-19.85 119.59-17.5 117.47-15.63 115.34-13.75 111.94-11.3L111.94-11.3Q109.44-9.5 108.02-8.33 106.59-7.15 105.54-5.95L105.54-5.95Q104.84-5.2 104.39-4.2L104.39-4.2 122.79-4.2 122.79 0 99.24 0ZM128.44 0L128.44-26.3 131.79-26.3 132.29-22.35 132.59-22.35Q133.34-24.3 134.84-25.6 136.34-26.9 138.79-26.9L138.79-26.9Q140.14-26.9 141.14-26.5L141.14-26.5 141.14-22.25 139.29-22.25Q136.49-22.25 134.66-20.63 132.84-19 132.84-15.55L132.84-15.55 132.84 0 128.44 0ZM156.24 0.6Q149.89 0.6 146.79-2.75 143.69-6.1 143.69-13.15L143.69-13.15Q143.69-20.2 146.79-23.55 149.89-26.9 156.24-26.9L156.24-26.9Q161.94-26.9 164.76-23.88 167.59-20.85 167.59-14.15L167.59-14.15 167.59-11.95 148.24-11.95Q148.49-7.4 150.41-5.23 152.34-3.05 156.24-3.05L156.24-3.05Q159.39-3.05 161.34-4.5 163.29-5.95 163.29-8.95L163.29-8.95 167.59-8.95Q167.59-4.35 164.41-1.88 161.24 0.6 156.24 0.6L156.24 0.6ZM148.34-15.6L162.99-15.6Q162.99-23.25 156.24-23.25L156.24-23.25Q152.49-23.25 150.61-21.45 148.74-19.65 148.34-15.6L148.34-15.6ZM180.03 0.6Q176.63 0.6 173.98-1 171.33-2.6 171.33-6.8L171.33-6.8Q171.33-11.85 175.83-13.73 180.33-15.6 188.83-15.6L188.83-15.6 188.83-18.5Q188.83-20.8 187.53-22.03 186.23-23.25 182.83-23.25L182.83-23.25Q179.63-23.25 178.26-22.05 176.88-20.85 176.88-19.1L176.88-19.1 176.88-18.5 172.63-18.5Q172.58-18.8 172.58-19.6L172.58-19.6Q172.58-23.1 175.48-25 178.38-26.9 183.23-26.9L183.23-26.9Q188.13-26.9 190.68-24.85 193.23-22.8 193.23-19.05L193.23-19.05 193.23-4.8Q193.23-3.9 193.73-3.48 194.23-3.05 194.98-3.05L194.98-3.05 196.98-3.05 196.98-0.2Q195.68 0.4 193.58 0.4L193.58 0.4Q191.88 0.4 190.73-0.63 189.58-1.65 189.18-3.35L189.18-3.35 188.83-3.35Q187.48-1.5 185.16-0.45 182.83 0.6 180.03 0.6L180.03 0.6ZM181.18-3.05Q183.13-3.05 184.88-3.85 186.63-4.65 187.73-6.23 188.83-7.8 188.83-10.05L188.83-10.05 188.83-11.95Q182.38-11.95 179.16-10.93 175.93-9.9 175.93-7.05L175.93-7.05Q175.93-4.9 177.26-3.98 178.58-3.05 181.18-3.05L181.18-3.05ZM200.68 0L200.68-36.15 205.08-36.15 205.08 0 200.68 0ZM213.03 0L213.03-34.3 217.78-34.3 217.78 0 213.03 0ZM235.23 0L235.23-30.15 223.43-30.15 223.43-34.3 251.78-34.3 251.78-30.15 239.98-30.15 239.98 0 235.23 0Z" fill="#89939e" data-fill-palette-color="primary"></path></g></svg></g></svg></g><g transform="matrix(1,0,0,1,75.54432,72.6812688)"><svg viewBox="0 0 244.43135999999998 12.46840879575377" height="12.46840879575377" width="244.43135999999998"><g transform="matrix(1,0,0,1,0,0)"><svg width="244.43135999999998" viewBox="1 -36.5 725.27 37" height="12.46840879575377" data-palette-color="#dedede"><path d="M1 0L8.55-35.5 13.3-35.5 20.4-12.45 37.35-35.5 42.05-35.5 34.5 0 30 0 35.85-27.45 20.4-6.4 17.85-6.4 11.35-27.45 5.5 0 1 0ZM52.9 0.5L52.9 0.5Q49.4 0.5 47.1-1 44.8-2.5 43.67-5 42.55-7.5 42.55-10.5L42.55-10.5Q42.55-13.8 43.75-16.7 44.95-19.6 47.07-21.83 49.2-24.05 52-25.3 54.8-26.55 57.95-26.55L57.95-26.55Q61.45-26.55 63.77-25.05 66.1-23.55 67.25-21.05 68.4-18.55 68.4-15.5L68.4-15.5Q68.4-12.25 67.2-9.35 66-6.45 63.85-4.23 61.7-2 58.9-0.75 56.1 0.5 52.9 0.5ZM53.65-3.3L53.65-3.3Q55.6-3.3 57.42-4.15 59.25-5 60.67-6.58 62.1-8.15 62.95-10.25 63.8-12.35 63.8-14.85L63.8-14.85Q63.8-17.15 63.05-18.93 62.3-20.7 60.85-21.73 59.4-22.75 57.25-22.75L57.25-22.75Q55.3-22.75 53.5-21.88 51.7-21 50.25-19.43 48.8-17.85 47.95-15.73 47.1-13.6 47.1-11.1L47.1-11.1Q47.1-8.85 47.85-7.08 48.6-5.3 50.07-4.3 51.55-3.3 53.65-3.3ZM80.75 0.5L80.75 0.5Q77.85 0.5 75.75-0.98 73.65-2.45 72.55-4.93 71.45-7.4 71.45-10.35L71.45-10.35Q71.45-13.5 72.62-16.4 73.8-19.3 75.82-21.58 77.85-23.85 80.45-25.2 83.05-26.55 85.9-26.55L85.9-26.55Q88.9-26.55 90.9-24.9 92.9-23.25 93.7-20.9L93.7-20.9 97.05-36.5 101.45-36.5 94.85-5.4Q94.8-5.2 94.77-5.05 94.75-4.9 94.75-4.75L94.75-4.75Q94.75-3.85 95.85-3.8L95.85-3.8 95.05 0Q94.5 0.05 94.07 0.13 93.65 0.2 93.3 0.2L93.3 0.2Q91.9 0.2 91.17-0.45 90.45-1.1 90.45-2.05L90.45-2.05Q90.45-2.35 90.5-2.73 90.55-3.1 90.65-3.65 90.75-4.2 90.9-4.9L90.9-4.9Q88.95-2.4 86.17-0.95 83.4 0.5 80.75 0.5ZM82.65-3.3L82.65-3.3Q83.75-3.3 85.02-3.75 86.3-4.2 87.52-5 88.75-5.8 89.75-6.88 90.75-7.95 91.25-9.15L91.25-9.15 92.8-16.65Q92.6-18.35 91.65-19.73 90.7-21.1 89.32-21.93 87.95-22.75 86.4-22.75L86.4-22.75Q84.3-22.75 82.45-21.73 80.6-20.7 79.17-19 77.75-17.3 76.92-15.23 76.1-13.15 76.1-11.05L76.1-11.05Q76.1-8.9 76.9-7.15 77.7-5.4 79.17-4.35 80.65-3.3 82.65-3.3ZM112.04 0.5L112.04 0.5Q108.79 0.5 106.49-0.98 104.19-2.45 102.99-4.95 101.79-7.45 101.79-10.55L101.79-10.55Q101.79-13.7 102.97-16.57 104.14-19.45 106.29-21.7 108.44-23.95 111.32-25.25 114.19-26.55 117.59-26.55L117.59-26.55Q120.14-26.55 122.12-25.75 124.09-24.95 125.19-23.4 126.29-21.85 126.29-19.5L126.29-19.5Q126.29-15.55 122.79-13.5 119.29-11.45 112.04-11.45L112.04-11.45Q110.69-11.45 108.94-11.53 107.19-11.6 104.89-11.8L104.89-11.8 105.49-14.8Q107.69-14.7 109.27-14.6 110.84-14.5 112.19-14.5L112.19-14.5Q115.99-14.5 118.19-15.15 120.39-15.8 121.37-16.95 122.34-18.1 122.34-19.55L122.34-19.55Q122.34-20.85 121.72-21.65 121.09-22.45 119.97-22.85 118.84-23.25 117.29-23.25L117.29-23.25Q114.79-23.25 112.77-22.2 110.74-21.15 109.27-19.35 107.79-17.55 107.02-15.28 106.24-13 106.24-10.55L106.24-10.55Q106.24-8.5 106.94-6.73 107.64-4.95 109.09-3.88 110.54-2.8 112.74-2.8L112.74-2.8Q115.04-2.8 117.24-3.98 119.44-5.15 120.69-7.15L120.69-7.15 124.24-6.1Q123.04-4.2 121.09-2.7 119.14-1.2 116.82-0.35 114.49 0.5 112.04 0.5ZM127.84 0L133.39-26.1 137.49-26.1 136.19-20.05Q138.09-22.75 140.52-24.45 142.94-26.15 145.34-26.15L145.34-26.15Q145.79-26.15 146.12-26.13 146.44-26.1 146.64-26.05L146.64-26.05 145.84-22.25Q142.74-22.2 139.99-20.58 137.24-18.95 135.64-16.1L135.64-16.1 132.24 0 127.84 0ZM145.54 0L151.09-26.1 155.09-26.1 153.89-20.5Q155.24-22.35 157.11-23.7 158.99-25.05 161.14-25.8 163.29-26.55 165.44-26.55L165.44-26.55Q167.54-26.55 168.79-25.78 170.04-25 170.59-23.63 171.14-22.25 171.14-20.4L171.14-20.4Q171.14-19.3 170.96-18.1 170.79-16.9 170.54-15.6L170.54-15.6 167.24 0 162.84 0 165.94-14.6Q166.19-15.7 166.29-16.63 166.39-17.55 166.39-18.35L166.39-18.35Q166.39-20.55 165.49-21.58 164.59-22.6 162.84-22.6L162.84-22.6Q161.19-22.6 159.34-21.7 157.49-20.8 155.89-19.28 154.29-17.75 153.29-15.75L153.29-15.75 149.94 0 145.54 0ZM192.33 0L186.98-26.1 191.53-26.1 195.68-3.85Q197.28-5.9 198.73-7.98 200.18-10.05 201.43-12.1L201.43-12.1 197.93-26.1 202.48-26.1 204.48-17.65Q205.53-19.75 206.36-21.88 207.18-24 207.73-26.1L207.73-26.1 211.93-26.1Q210.98-22.65 209.41-19.18 207.83-15.7 205.78-12.25L205.78-12.25 207.83-3.85Q209.43-6.05 210.88-8.28 212.33-10.5 213.58-12.75 214.83-15 215.91-17.23 216.98-19.45 217.81-21.68 218.63-23.9 219.18-26.1L219.18-26.1 223.38-26.1Q221.58-19.6 217.93-13.08 214.28-6.55 209.23 0L209.23 0 204.48 0 202.63-7.35Q201.38-5.5 199.98-3.68 198.58-1.85 197.08 0L197.08 0 192.33 0ZM233.88 0.5L233.88 0.5Q230.63 0.5 228.33-0.98 226.03-2.45 224.83-4.95 223.63-7.45 223.63-10.55L223.63-10.55Q223.63-13.7 224.81-16.57 225.98-19.45 228.13-21.7 230.28-23.95 233.16-25.25 236.03-26.55 239.43-26.55L239.43-26.55Q241.98-26.55 243.96-25.75 245.93-24.95 247.03-23.4 248.13-21.85 248.13-19.5L248.13-19.5Q248.13-15.55 244.63-13.5 241.13-11.45 233.88-11.45L233.88-11.45Q232.53-11.45 230.78-11.53 229.03-11.6 226.73-11.8L226.73-11.8 227.33-14.8Q229.53-14.7 231.11-14.6 232.68-14.5 234.03-14.5L234.03-14.5Q237.83-14.5 240.03-15.15 242.23-15.8 243.21-16.95 244.18-18.1 244.18-19.55L244.18-19.55Q244.18-20.85 243.56-21.65 242.93-22.45 241.81-22.85 240.68-23.25 239.13-23.25L239.13-23.25Q236.63-23.25 234.61-22.2 232.58-21.15 231.11-19.35 229.63-17.55 228.86-15.28 228.08-13 228.08-10.55L228.08-10.55Q228.08-8.5 228.78-6.73 229.48-4.95 230.93-3.88 232.38-2.8 234.58-2.8L234.58-2.8Q236.88-2.8 239.08-3.98 241.28-5.15 242.53-7.15L242.53-7.15 246.08-6.1Q244.88-4.2 242.93-2.7 240.98-1.2 238.66-0.35 236.33 0.5 233.88 0.5ZM262.58 0.5L262.58 0.5Q259.53 0.5 257.5-1.03 255.48-2.55 254.63-4.9L254.63-4.9 253.58 0 249.68 0 257.43-36.5 261.83-36.5 258.53-20.9Q260.58-23.45 263.2-25 265.83-26.55 268.73-26.55L268.73-26.55Q271.63-26.55 273.55-25.05 275.48-23.55 276.45-21.13 277.43-18.7 277.43-15.9L277.43-15.9Q277.43-12.6 276.18-9.65 274.93-6.7 272.8-4.4 270.68-2.1 268.03-0.8 265.38 0.5 262.58 0.5ZM262.43-3.3L262.43-3.3Q264.38-3.3 266.23-4.28 268.08-5.25 269.55-6.93 271.03-8.6 271.9-10.73 272.78-12.85 272.78-15.1L272.78-15.1Q272.78-17.1 272.05-18.85 271.33-20.6 269.98-21.68 268.63-22.75 266.63-22.75L266.63-22.75Q264.93-22.75 263.25-21.9 261.58-21.05 260.15-19.68 258.73-18.3 257.63-16.65L257.63-16.65 256.03-9.1Q256.03-7.5 256.9-6.18 257.78-4.85 259.23-4.08 260.68-3.3 262.43-3.3ZM288.43 0.5L288.43 0.5Q285.28 0.5 282.58-0.48 279.88-1.45 278.18-3.3L278.18-3.3 280.68-6.25Q282.48-4.55 284.5-3.73 286.53-2.9 288.83-2.9L288.83-2.9Q290.83-2.9 292.35-3.48 293.88-4.05 294.73-5.13 295.58-6.2 295.58-7.6L295.58-7.6Q295.58-9.4 294.08-10.08 292.58-10.75 289.63-11.6L289.63-11.6Q287.18-12.35 285.55-13 283.93-13.65 283.15-14.68 282.38-15.7 282.38-17.5L282.38-17.5Q282.38-20.2 283.88-22.23 285.38-24.25 287.93-25.4 290.48-26.55 293.68-26.55L293.68-26.55Q296.63-26.55 298.83-25.6 301.03-24.65 302.43-23.1L302.43-23.1 299.88-20.45Q298.63-21.9 297.08-22.55 295.53-23.2 293.48-23.2L293.48-23.2Q291.53-23.2 290-22.68 288.48-22.15 287.6-21.1 286.73-20.05 286.73-18.5L286.73-18.5Q286.73-16.95 287.83-16.32 288.93-15.7 291.68-14.95L291.68-14.95Q294.38-14.2 296.25-13.38 298.13-12.55 299.08-11.35 300.03-10.15 300.03-8.15L300.03-8.15Q300.03-5.7 298.6-3.75 297.18-1.8 294.58-0.65 291.98 0.5 288.43 0.5ZM303.37 0L308.92-26.1 313.32-26.1 307.77 0 303.37 0ZM309.97-31L311.12-36.5 315.52-36.5 314.37-31 309.97-31ZM316.82-3.65L316.82-3.65Q316.82-4 316.87-4.38 316.92-4.75 316.97-5.1L316.97-5.1 320.72-22.65 317.32-22.65 318.07-26.1 321.42-26.1 323.27-34.8 327.67-34.8 325.82-26.1 331.37-26.1 330.62-22.65 325.12-22.65 321.67-6.45Q321.62-6.25 321.6-6.08 321.57-5.9 321.57-5.7L321.57-5.7Q321.57-4.65 322.22-4.17 322.87-3.7 323.82-3.7L323.82-3.7Q324.67-3.7 325.45-3.93 326.22-4.15 326.82-4.4 327.42-4.65 327.72-4.8L327.72-4.8 327.97-1.3Q327.37-0.9 326.37-0.5 325.37-0.1 324.12 0.13 322.87 0.35 321.52 0.35L321.52 0.35Q319.52 0.35 318.17-0.63 316.82-1.6 316.82-3.65ZM342.37 0.5L342.37 0.5Q339.12 0.5 336.82-0.98 334.52-2.45 333.32-4.95 332.12-7.45 332.12-10.55L332.12-10.55Q332.12-13.7 333.29-16.57 334.47-19.45 336.62-21.7 338.77-23.95 341.64-25.25 344.52-26.55 347.92-26.55L347.92-26.55Q350.47-26.55 352.44-25.75 354.42-24.95 355.52-23.4 356.62-21.85 356.62-19.5L356.62-19.5Q356.62-15.55 353.12-13.5 349.62-11.45 342.37-11.45L342.37-11.45Q341.02-11.45 339.27-11.53 337.52-11.6 335.22-11.8L335.22-11.8 335.82-14.8Q338.02-14.7 339.59-14.6 341.17-14.5 342.52-14.5L342.52-14.5Q346.32-14.5 348.52-15.15 350.72-15.8 351.69-16.95 352.67-18.1 352.67-19.55L352.67-19.55Q352.67-20.85 352.04-21.65 351.42-22.45 350.29-22.85 349.17-23.25 347.62-23.25L347.62-23.25Q345.12-23.25 343.09-22.2 341.07-21.15 339.59-19.35 338.12-17.55 337.34-15.28 336.57-13 336.57-10.55L336.57-10.55Q336.57-8.5 337.27-6.73 337.97-4.95 339.42-3.88 340.87-2.8 343.07-2.8L343.07-2.8Q345.37-2.8 347.57-3.98 349.77-5.15 351.02-7.15L351.02-7.15 354.57-6.1Q353.37-4.2 351.42-2.7 349.47-1.2 347.14-0.35 344.82 0.5 342.37 0.5ZM366.97 0.5L366.97 0.5Q363.81 0.5 361.12-0.48 358.42-1.45 356.72-3.3L356.72-3.3 359.22-6.25Q361.02-4.55 363.04-3.73 365.06-2.9 367.37-2.9L367.37-2.9Q369.37-2.9 370.89-3.48 372.42-4.05 373.27-5.13 374.12-6.2 374.12-7.6L374.12-7.6Q374.12-9.4 372.62-10.08 371.12-10.75 368.17-11.6L368.17-11.6Q365.72-12.35 364.09-13 362.47-13.65 361.69-14.68 360.92-15.7 360.92-17.5L360.92-17.5Q360.92-20.2 362.42-22.23 363.92-24.25 366.47-25.4 369.02-26.55 372.22-26.55L372.22-26.55Q375.17-26.55 377.37-25.6 379.56-24.65 380.97-23.1L380.97-23.1 378.42-20.45Q377.17-21.9 375.62-22.55 374.06-23.2 372.02-23.2L372.02-23.2Q370.06-23.2 368.54-22.68 367.02-22.15 366.14-21.1 365.27-20.05 365.27-18.5L365.27-18.5Q365.27-16.95 366.37-16.32 367.47-15.7 370.22-14.95L370.22-14.95Q372.92-14.2 374.79-13.38 376.67-12.55 377.62-11.35 378.56-10.15 378.56-8.15L378.56-8.15Q378.56-5.7 377.14-3.75 375.72-1.8 373.12-0.65 370.52 0.5 366.97 0.5ZM407.16 0.5L407.16 0.5Q404.11 0.5 402.09-1.03 400.06-2.55 399.21-4.9L399.21-4.9 398.16 0 394.26 0 402.01-36.5 406.41-36.5 403.11-20.9Q405.16-23.45 407.79-25 410.41-26.55 413.31-26.55L413.31-26.55Q416.21-26.55 418.14-25.05 420.06-23.55 421.04-21.13 422.01-18.7 422.01-15.9L422.01-15.9Q422.01-12.6 420.76-9.65 419.51-6.7 417.39-4.4 415.26-2.1 412.61-0.8 409.96 0.5 407.16 0.5ZM407.01-3.3L407.01-3.3Q408.96-3.3 410.81-4.28 412.66-5.25 414.14-6.93 415.61-8.6 416.49-10.73 417.36-12.85 417.36-15.1L417.36-15.1Q417.36-17.1 416.64-18.85 415.91-20.6 414.56-21.68 413.21-22.75 411.21-22.75L411.21-22.75Q409.51-22.75 407.84-21.9 406.16-21.05 404.74-19.68 403.31-18.3 402.21-16.65L402.21-16.65 400.61-9.1Q400.61-7.5 401.49-6.18 402.36-4.85 403.81-4.08 405.26-3.3 407.01-3.3ZM431.71 0.5L431.71 0.5Q425.61 0.5 425.61-6.1L425.61-6.1Q425.61-7.05 425.76-8.13 425.91-9.2 426.16-10.45L426.16-10.45 429.51-26.1 433.86-26.1 430.71-11.3Q430.26-9.3 430.26-7.85L430.26-7.85Q430.26-3.3 434.16-3.3L434.16-3.3Q435.86-3.3 437.56-4.08 439.26-4.85 440.83-6.3 442.41-7.75 443.56-9.75L443.56-9.75 447.01-26.1 451.41-26.1 447.01-5.4Q446.96-5.2 446.93-5.05 446.91-4.9 446.91-4.75L446.91-4.75Q446.91-3.85 448.01-3.8L448.01-3.8 447.21 0Q446.66 0.05 446.23 0.13 445.81 0.2 445.46 0.2L445.46 0.2Q444.11 0.2 443.41-0.4 442.71-1 442.71-2L442.71-2Q442.71-2.3 442.76-2.73 442.81-3.15 442.93-3.85 443.06-4.55 443.26-5.6L443.26-5.6Q441.01-2.7 437.96-1.1 434.91 0.5 431.71 0.5ZM453.06 0L458.61-26.1 463.01-26.1 457.46 0 453.06 0ZM459.66-31L460.81-36.5 465.21-36.5 464.06-31 459.66-31ZM469.7 0.35L469.7 0.35Q467.65 0.35 466.5-0.68 465.35-1.7 465.35-3.55L465.35-3.55Q465.35-3.95 465.43-4.35 465.5-4.75 465.55-5.15L465.55-5.15 472.2-36.5 476.55-36.5 470.25-6.75Q470.2-6.5 470.18-6.28 470.15-6.05 470.15-5.8L470.15-5.8Q470.15-3.65 472.4-3.65L472.4-3.65Q472.95-3.65 473.73-3.83 474.5-4 475.15-4.25L475.15-4.25 475-0.7Q473.9-0.25 472.38 0.05 470.85 0.35 469.7 0.35ZM488.5 0.5L488.5 0.5Q485.6 0.5 483.5-0.98 481.4-2.45 480.3-4.93 479.2-7.4 479.2-10.35L479.2-10.35Q479.2-13.5 480.38-16.4 481.55-19.3 483.58-21.58 485.6-23.85 488.2-25.2 490.8-26.55 493.65-26.55L493.65-26.55Q496.65-26.55 498.65-24.9 500.65-23.25 501.45-20.9L501.45-20.9 504.8-36.5 509.2-36.5 502.6-5.4Q502.55-5.2 502.53-5.05 502.5-4.9 502.5-4.75L502.5-4.75Q502.5-3.85 503.6-3.8L503.6-3.8 502.8 0Q502.25 0.05 501.83 0.13 501.4 0.2 501.05 0.2L501.05 0.2Q499.65 0.2 498.93-0.45 498.2-1.1 498.2-2.05L498.2-2.05Q498.2-2.35 498.25-2.73 498.3-3.1 498.4-3.65 498.5-4.2 498.65-4.9L498.65-4.9Q496.7-2.4 493.93-0.95 491.15 0.5 488.5 0.5ZM490.4-3.3L490.4-3.3Q491.5-3.3 492.78-3.75 494.05-4.2 495.28-5 496.5-5.8 497.5-6.88 498.5-7.95 499-9.15L499-9.15 500.55-16.65Q500.35-18.35 499.4-19.73 498.45-21.1 497.08-21.93 495.7-22.75 494.15-22.75L494.15-22.75Q492.05-22.75 490.2-21.73 488.35-20.7 486.93-19 485.5-17.3 484.68-15.23 483.85-13.15 483.85-11.05L483.85-11.05Q483.85-8.9 484.65-7.15 485.45-5.4 486.93-4.35 488.4-3.3 490.4-3.3ZM527.09 0L521.75-26.1 526.29-26.1 530.44-3.85Q532.04-5.9 533.5-7.98 534.94-10.05 536.19-12.1L536.19-12.1 532.69-26.1 537.25-26.1 539.25-17.65Q540.29-19.75 541.12-21.88 541.94-24 542.5-26.1L542.5-26.1 546.69-26.1Q545.75-22.65 544.17-19.18 542.59-15.7 540.54-12.25L540.54-12.25 542.59-3.85Q544.19-6.05 545.64-8.28 547.09-10.5 548.34-12.75 549.59-15 550.67-17.23 551.75-19.45 552.57-21.68 553.39-23.9 553.94-26.1L553.94-26.1 558.14-26.1Q556.34-19.6 552.69-13.08 549.04-6.55 544 0L544 0 539.25 0 537.39-7.35Q536.14-5.5 534.75-3.68 533.34-1.85 531.84 0L531.84 0 527.09 0ZM557.94 0L563.49-26.1 567.89-26.1 562.34 0 557.94 0ZM564.54-31L565.69-36.5 570.09-36.5 568.94-31 564.54-31ZM571.39-3.65L571.39-3.65Q571.39-4 571.44-4.38 571.49-4.75 571.54-5.1L571.54-5.1 575.29-22.65 571.89-22.65 572.64-26.1 575.99-26.1 577.84-34.8 582.24-34.8 580.39-26.1 585.94-26.1 585.19-22.65 579.69-22.65 576.24-6.45Q576.19-6.25 576.16-6.08 576.14-5.9 576.14-5.7L576.14-5.7Q576.14-4.65 576.79-4.17 577.44-3.7 578.39-3.7L578.39-3.7Q579.24-3.7 580.01-3.93 580.79-4.15 581.39-4.4 581.99-4.65 582.29-4.8L582.29-4.8 582.54-1.3Q581.94-0.9 580.94-0.5 579.94-0.1 578.69 0.13 577.44 0.35 576.09 0.35L576.09 0.35Q574.09 0.35 572.74-0.63 571.39-1.6 571.39-3.65ZM586.14 0L593.89-36.5 598.29-36.5 594.89-20.5Q596.94-23.3 599.81-24.93 602.69-26.55 605.64-26.55L605.64-26.55Q607.84-26.55 609.16-25.73 610.49-24.9 611.06-23.45 611.64-22 611.64-20.05L611.64-20.05Q611.64-19.05 611.51-17.93 611.39-16.8 611.14-15.6L611.14-15.6 607.84 0 603.44 0 606.54-14.6Q606.74-15.6 606.84-16.43 606.94-17.25 606.94-18L606.94-18Q606.94-20.3 605.96-21.45 604.99-22.6 603.09-22.6L603.09-22.6Q601.54-22.6 599.76-21.7 597.99-20.8 596.41-19.28 594.84-17.75 593.89-15.75L593.89-15.75 590.54 0 586.14 0ZM637.93 0.5L637.93 0.5Q634.63 0.5 632.36-1 630.08-2.5 628.88-5 627.68-7.5 627.68-10.55L627.68-10.55Q627.68-13.7 628.88-16.57 630.08-19.45 632.21-21.7 634.33-23.95 637.21-25.25 640.08-26.55 643.43-26.55L643.43-26.55Q647.28-26.55 649.61-24.83 651.93-23.1 652.68-20.2L652.68-20.2 648.13-18.85Q647.53-20.75 646.13-21.75 644.73-22.75 642.68-22.75L642.68-22.75Q640.68-22.75 638.81-21.85 636.93-20.95 635.46-19.33 633.98-17.7 633.11-15.6 632.23-13.5 632.23-11.1L632.23-11.1Q632.23-8.85 633.03-7.1 633.83-5.35 635.26-4.33 636.68-3.3 638.53-3.3L638.53-3.3Q639.98-3.3 641.43-3.85 642.88-4.4 644.06-5.33 645.23-6.25 645.83-7.35L645.83-7.35 649.88-6.05Q648.73-4.15 646.86-2.68 644.98-1.2 642.68-0.35 640.38 0.5 637.93 0.5ZM663.53 0.5L663.53 0.5Q660.63 0.5 658.53-0.98 656.43-2.45 655.33-4.93 654.23-7.4 654.23-10.35L654.23-10.35Q654.23-13.5 655.4-16.4 656.58-19.3 658.6-21.58 660.63-23.85 663.23-25.2 665.83-26.55 668.68-26.55L668.68-26.55Q671.68-26.55 673.68-24.9 675.68-23.25 676.48-20.9L676.48-20.9 677.63-26.1 682.03-26.1 677.63-5.4Q677.58-5.2 677.55-5.05 677.53-4.9 677.53-4.75L677.53-4.75Q677.53-3.85 678.63-3.8L678.63-3.8 677.83 0Q677.28 0.05 676.85 0.13 676.43 0.2 676.08 0.2L676.08 0.2Q674.68 0.2 673.95-0.45 673.23-1.1 673.23-2.05L673.23-2.05Q673.23-2.35 673.28-2.75 673.33-3.15 673.43-3.7 673.53-4.25 673.68-4.9L673.68-4.9Q671.73-2.4 668.95-0.95 666.18 0.5 663.53 0.5ZM665.43-3.3L665.43-3.3Q666.53-3.3 667.8-3.75 669.08-4.2 670.3-5 671.53-5.8 672.53-6.88 673.53-7.95 674.03-9.15L674.03-9.15 675.58-16.65Q675.38-18.35 674.43-19.73 673.48-21.1 672.1-21.93 670.73-22.75 669.18-22.75L669.18-22.75Q667.08-22.75 665.23-21.73 663.38-20.7 661.95-19 660.53-17.3 659.7-15.23 658.88-13.15 658.88-11.05L658.88-11.05Q658.88-8.9 659.68-7.15 660.48-5.4 661.95-4.35 663.43-3.3 665.43-3.3ZM683.68 0L689.23-26.1 693.33-26.1 692.03-20.05Q693.93-22.75 696.35-24.45 698.78-26.15 701.18-26.15L701.18-26.15Q701.63-26.15 701.95-26.13 702.28-26.1 702.48-26.05L702.48-26.05 701.68-22.25Q698.58-22.2 695.83-20.58 693.08-18.95 691.48-16.1L691.48-16.1 688.08 0 683.68 0ZM712.02 0.5L712.02 0.5Q708.77 0.5 706.47-0.98 704.17-2.45 702.97-4.95 701.77-7.45 701.77-10.55L701.77-10.55Q701.77-13.7 702.95-16.57 704.12-19.45 706.27-21.7 708.42-23.95 711.3-25.25 714.17-26.55 717.57-26.55L717.57-26.55Q720.12-26.55 722.1-25.75 724.07-24.95 725.17-23.4 726.27-21.85 726.27-19.5L726.27-19.5Q726.27-15.55 722.77-13.5 719.27-11.45 712.02-11.45L712.02-11.45Q710.67-11.45 708.92-11.53 707.17-11.6 704.87-11.8L704.87-11.8 705.47-14.8Q707.67-14.7 709.25-14.6 710.82-14.5 712.17-14.5L712.17-14.5Q715.97-14.5 718.17-15.15 720.37-15.8 721.35-16.95 722.32-18.1 722.32-19.55L722.32-19.55Q722.32-20.85 721.7-21.65 721.07-22.45 719.95-22.85 718.82-23.25 717.27-23.25L717.27-23.25Q714.77-23.25 712.75-22.2 710.72-21.15 709.25-19.35 707.77-17.55 707-15.28 706.22-13 706.22-10.55L706.22-10.55Q706.22-8.5 706.92-6.73 707.62-4.95 709.07-3.88 710.52-2.8 712.72-2.8L712.72-2.8Q715.02-2.8 717.22-3.98 719.42-5.15 720.67-7.15L720.67-7.15 724.22-6.1Q723.02-4.2 721.07-2.7 719.12-1.2 716.8-0.35 714.47 0.5 712.02 0.5Z" opacity="1" transform="matrix(1,0,0,1,0,0)" fill="#dedede" class="slogan-text-1" data-fill-palette-color="secondary" id="text-1"></path></svg></g></svg></g></svg></g></svg></g><g transform="matrix(1,0,0,1,151.7666001261568,0)"><svg viewBox="0 0 93.96439974768633 117.67685443733168" height="117.67685443733168" width="93.96439974768633"><g><svg xmlns="http://www.w3.org/2000/svg" xmlns:xlink="http://www.w3.org/1999/xlink" version="1.1" x="0" y="0" viewBox="10.075326631587098 0 79.84951687991173 100" enable-background="new 0 0 100 100" xml:space="preserve" height="117.67685443733168" width="93.96439974768633" class="icon-icon-0" data-fill-palette-color="accent" id="icon-0"><path d="M75.17 63.706L40.989 41.989l11.879-18.458c5.586 1.322 8.929-7.973 3.477-10.31-5.063-2.171-10.008 5.772-5.69 9.229L39.77 39.365l-4.751-20.094c5.647-1.805 7.16-6.36 6.652-10.111C41.061 4.658 37.381 0 32.278 0c-0.84 0-1.692 0.131-2.532 0.386-5.159 1.57-7.214 7.319-6.528 11.931 0.695 4.674 3.815 7.578 8.143 7.578 0 0 0 0 0 0 0.413 0 0.838-0.032 1.271-0.086l4.694 19.854L20.198 28.781c5.068-6.658-5.554-11.664-9.138-5.609-3.354 5.666 2.551 10.758 7.351 7.371l19.19 12.191L27.1 59.052c-4.263-2.822-7.383 3.962-3.453 6.319 3.626 2.176 6.934-1.367 5.193-4.505l9.873-15.341 9.435 39.898c-3.474 1.234-4.692 4.977-4.325 8.111C44.27 97.342 46.817 100 50.019 100h0.001c0.6 0 1.224-0.088 1.855-0.264 4.312-1.198 6.087-5.363 5.61-8.859-0.49-3.598-3.051-5.923-6.522-5.923-0.135 0-0.272 0.007-0.41 0.013l-9.462-40.015 33.004 20.969c-2.779 8.737 11.759 14.103 15.292 5.726C92.666 63.867 80.081 56.373 75.17 63.706zM32.494 8.594c-0.155-0.657-0.814-1.062-1.471-0.908-0.657 0.155-1.064 0.814-0.909 1.471l2.016 8.523c-0.261 0.025-0.519 0.042-0.767 0.042 0 0 0 0-0.001 0-4.771-0.001-5.794-4.382-5.994-5.726-0.552-3.713 1.017-8.315 5.011-9.531 0.635-0.193 1.275-0.291 1.9-0.291 3.915 0 6.755 3.699 7.239 7.277 0.492 3.635-1.37 6.475-4.999 7.706L32.494 8.594zM55.333 91.17c0.349 2.562-0.927 5.607-4.04 6.473-0.442 0.123-0.871 0.186-1.273 0.186l0 0c-2.421-0.001-3.773-2.284-4.039-4.547-0.266-2.266 0.482-4.785 2.673-5.716l1.327 5.61c0.133 0.562 0.635 0.941 1.189 0.941 0.093 0 0.188-0.01 0.282-0.032 0.657-0.155 1.063-0.814 0.908-1.472l-1.296-5.481C53.808 87.184 55.069 89.24 55.333 91.17z" fill="#dedede" data-fill-palette-color="accent"></path></svg></g></svg></g><g></g></svg></g><defs></defs></svg><rect width="395.52" height="234.71812369620443" fill="none" stroke="none" visibility="hidden"></rect></g></svg></g></svg>